<svg xmlns="http://www.w3.org/2000/svg" width="51.237" height="68.281" viewBox="0 0 51.237 68.281">
  <g id="Delete_Icon" transform="translate(0.958 2.506)">
    <path id="Path_50265" data-name="Path 50265" d="M29.452,6.009l-.612,13.773-6.049.612,1.53-4.591-9.182,1.53L18.2,12.743l-7.725.612,2.755-3.979,11.63-6.121L29.759.5Z" transform="translate(19.52 0)" fill="#fff" stroke="#a0b0b9" stroke-linecap="round" stroke-linejoin="round" stroke-miterlimit="10" stroke-width="2"/>
    <path id="Path_50266" data-name="Path 50266" d="M16.137,21.5H13.076" transform="translate(24.878 43.275)" fill="none" stroke="#a0b0b9" stroke-linecap="round" stroke-linejoin="round" stroke-miterlimit="10" stroke-width="2"/>
    <path id="Path_50267" data-name="Path 50267" d="M2.376,21.5H30.535" transform="translate(2.828 43.275)" fill="none" stroke="#a0b0b9" stroke-linecap="round" stroke-linejoin="round" stroke-miterlimit="10" stroke-width="2"/>
    <path id="Path_50268" data-name="Path 50268" d="M1.838,22.948,5.817,17,20.2,27.017s-1.224,3.756-2.755,3.756H3.368C.92,28.269.308,25.139,1.838,22.948Z" transform="translate(0 34.002)" fill="#fff" stroke="#a0b0b9" stroke-linecap="round" stroke-linejoin="round" stroke-miterlimit="10" stroke-width="2"/>
    <path id="Path_50269" data-name="Path 50269" d="M24.083,24.731,8.051,14.015,2.268,22.667,18.3,33.383Z" transform="translate(2.606 27.852)" fill="#eaeef0" stroke="#a0b0b9" stroke-linecap="round" stroke-linejoin="round" stroke-miterlimit="10" stroke-width="2"/>
    <path id="Path_50270" data-name="Path 50270" d="M19.58,44.5,4.276,34.089,23.253,5.318,30.9,4.4,27.844,9.6l9.182-1.836-3.061,5.2,7.652-1.224Z" transform="translate(6.744 8.037)" fill="#fff" stroke="#2a3693" stroke-linecap="round" stroke-linejoin="round" stroke-miterlimit="10" stroke-width="1"/>
    <path id="Path_50271" data-name="Path 50271" d="M21.94,6,7.176,28.037" transform="translate(12.72 11.334)" fill="none" stroke="#a0b0b9" stroke-linecap="round" stroke-linejoin="round" stroke-miterlimit="10" stroke-width="2"/>
    <path id="Path_50272" data-name="Path 50272" d="M9.076,30.011,24.239,6.973" transform="translate(16.636 13.339)" fill="none" stroke="#a0b0b9" stroke-linecap="round" stroke-linejoin="round" stroke-miterlimit="10" stroke-width="2"/>
    <path id="Path_50273" data-name="Path 50273" d="M19.5,44.5,4.2,34.089,23.177,5.318,30.828,4.4,27.768,9.6,36.95,7.767l-3.061,5.2,7.747-.935Z" transform="translate(6.587 8.037)" fill="none" stroke="#a0b0b9" stroke-linecap="round" stroke-linejoin="round" stroke-miterlimit="10" stroke-width="2"/>
    <path id="Path_50274" data-name="Path 50274" d="M20.073.5l-.306,5.509a6.56,6.56,0,0,1-4.591-2.755Z" transform="translate(29.206 0)" fill="#eaeef0" stroke="#a0b0b9" stroke-linecap="round" stroke-linejoin="round" stroke-miterlimit="10" stroke-width="2"/>
    <path id="Path_9027" data-name="Path 9027" d="M379.343,172.318c0,.774.444,1.027,1.2,1.027h5.642c.6,0,1.078-.3,1.078-.875s-.482-.875-1.078-.875h-4.057l4.78-5.68a1.159,1.159,0,0,0,.292-.748.852.852,0,0,0-.964-.951h-5.478c-.6,0-1.078.3-1.078.875s.482.875,1.078.875h3.626l-4.7,5.554A1.212,1.212,0,0,0,379.343,172.318Z" transform="translate(-377.388 -149.51)" fill="#bbc4c9"/>
    <path id="Path_9028" data-name="Path 9028" d="M410.654,64.476h4.417a.677.677,0,1,0,0-1.353h-2.849l3.206-3.514a.91.91,0,0,0,.273-.582.681.681,0,0,0-.712-.76h-4.12a.677.677,0,1,0,0,1.354h2.505l-3.265,3.55a.891.891,0,0,0-.226.629.7.7,0,0,0,.771.676Z" transform="translate(-404.078 -56.932)" fill="#bbc4c9"/>
    <path id="Path_9029" data-name="Path 9029" d="M356.911,32.514h3.3a.507.507,0,1,0,0-1.013h-2.132l2.4-2.63a.681.681,0,0,0,.2-.435.509.509,0,0,0-.533-.569h-3.083a.507.507,0,1,0,0,1.013h1.875L356.5,31.537a.667.667,0,0,0-.169.471.521.521,0,0,0,.58.506Z" transform="translate(-357.288 -30.372)" fill="#bbc4c9"/>
  </g>
</svg>
