<svg xmlns="http://www.w3.org/2000/svg" width="40" height="40" viewBox="0 0 40 40">
  <g id="_2501ea881e1c51e92314e3aef43239e9.icons8-watch" data-name="2501ea881e1c51e92314e3aef43239e9.icons8-watch" transform="translate(-4 -4)">
    <path id="Path_50827" data-name="Path 50827" d="M44,24A20,20,0,1,1,24,4,20,20,0,0,1,44,24Z" fill="#30bdce"/>
    <path id="Path_50828" data-name="Path 50828" d="M40,24A16,16,0,1,1,24,8,16,16,0,0,1,40,24Z" fill="#fafaff"/>
    <path id="Path_50829" data-name="Path 50829" d="M23,39.95c.332.02.662.05,1,.05s.668-.03,1-.05V36H23Z" fill="#78909c"/>
    <path id="Path_50830" data-name="Path 50830" d="M36,25h3.95c.02-.332.05-.662.05-1s-.03-.668-.05-1H36Z" fill="#78909c"/>
    <path id="Path_50831" data-name="Path 50831" d="M8.05,25H12V23H8.05c-.02.332-.05.662-.05,1S8.03,24.668,8.05,25Z" fill="#78909c"/>
    <path id="Path_50832" data-name="Path 50832" d="M31.664,30.27,29.934,32l-6.8-6.8,1.73-1.73Z" fill="#143861"/>
    <path id="Path_50833" data-name="Path 50833" d="M27,24a3,3,0,1,1-3-3,3,3,0,0,1,3,3" fill="#143861"/>
    <path id="Path_50834" data-name="Path 50834" d="M23,11h2V21.336H23Z" fill="#143861"/>
    <path id="Path_50835" data-name="Path 50835" d="M25,24a1,1,0,1,1-1-1,1,1,0,0,1,1,1" fill="#fff"/>
  </g>
</svg>
