<svg xmlns="http://www.w3.org/2000/svg" width="93.945" height="125.977" viewBox="0 0 93.945 125.977">
  <g id="Group_412" data-name="Group 412" transform="translate(-129.896 -158.996)">
    <g id="chat_7_" data-name="chat (7)" transform="translate(129.895 216.108)">
      <g id="Group_213" data-name="Group 213" transform="translate(0 0)">
        <ellipse id="Ellipse_525" data-name="Ellipse 525" cx="29.709" cy="30.269" rx="29.709" ry="30.269" transform="translate(3.485 2.464)" fill="rgba(231,235,238,0.85)"/>
        <path id="Polygon_24" data-name="Polygon 24" d="M5.6,0l5.6,17.177H0Z" transform="translate(8.453 68.865) rotate(-135)" fill="#e7ebed"/>
        <path id="Path_1085" data-name="Path 1085" d="M56.283,9.646A32.907,32.907,0,0,0,7.57,53.782c-1.475,3.018-3.211,5.031-5.183,6a3.07,3.07,0,0,0,.882,5.789,15.66,15.66,0,0,0,2.329.179h0a21.282,21.282,0,0,0,11.827-3.83A32.917,32.917,0,0,0,56.283,9.646Zm-2.632,43.9A29.2,29.2,0,0,1,18.24,58.082a1.857,1.857,0,0,0-2.081.124A17.724,17.724,0,0,1,5.829,62a18.73,18.73,0,0,0,5.643-7.788,1.873,1.873,0,0,0-.318-1.984,29.185,29.185,0,1,1,42.5,1.323Z" transform="translate(-0.112 -0.014)" fill="#a3b0b8"/>
        <path id="Path_1086" data-name="Path 1086" d="M157.719,160H127.336a2.051,2.051,0,1,0,0,4.1h30.383a2.051,2.051,0,1,0,0-4.1Z" transform="translate(-109.617 -138.092)" fill="#a3b0b8"/>
        <path id="Path_1087" data-name="Path 1087" d="M157.719,225.3H127.336a2.051,2.051,0,1,0,0,4.1h30.383a2.051,2.051,0,0,0,0-4.1Z" transform="translate(-109.617 -194.455)" fill="#a3b0b8"/>
        <path id="Path_1088" data-name="Path 1088" d="M157.719,290.6H127.336a2.051,2.051,0,1,0,0,4.1h30.383a2.051,2.051,0,1,0,0-4.1Z" transform="translate(-109.617 -250.807)" fill="#a3b0b8"/>
      </g>
    </g>
    <g id="chat_7_2" data-name="chat (7)" transform="translate(158.029 198.188)">
      <g id="Group_213-2" data-name="Group 213" transform="translate(0 0)">
        <circle id="Ellipse_524" data-name="Ellipse 524" cx="30.269" cy="30.269" r="30.269" transform="translate(2.757 2.451)" fill="#fff"/>
        <path id="Path_1085-2" data-name="Path 1085" d="M9.753,9.646A32.907,32.907,0,0,1,58.466,53.782c1.475,3.018,3.211,5.031,5.183,6a3.07,3.07,0,0,1-.882,5.789,15.66,15.66,0,0,1-2.329.179h0a21.282,21.282,0,0,1-11.827-3.83A32.917,32.917,0,0,1,9.753,9.646Zm2.632,43.9A29.2,29.2,0,0,0,47.8,58.082a1.857,1.857,0,0,1,2.081.124A17.724,17.724,0,0,0,60.21,62a18.73,18.73,0,0,1-5.637-7.788,1.873,1.873,0,0,1,.306-1.984,29.185,29.185,0,1,0-42.5,1.323Z" transform="translate(-0.112 -0.014)" fill="#a3b0b8"/>
      </g>
    </g>
    <g id="Group_410" data-name="Group 410" transform="translate(177.105 227.42)">
      <path id="Path_9024" data-name="Path 9024" d="M236.2,393.913a5.815,5.815,0,0,1-7.312,0,1.573,1.573,0,1,0-2.059,2.377,8.954,8.954,0,0,0,11.431,0,1.572,1.572,0,1,0-2.059-2.377Z" transform="translate(-218.945 -382.493)" fill="#a3b0b8"/>
      <path id="Path_9025" data-name="Path 9025" d="M284.971,341.223A1.573,1.573,0,0,0,283,342.256a1.789,1.789,0,0,1-3.415,0,1.573,1.573,0,1,0-3,.936,4.934,4.934,0,0,0,9.42,0,1.572,1.572,0,0,0-1.029-1.968Z" transform="translate(-258.58 -341.151)" fill="#a3b0b8"/>
      <path id="Path_9026" data-name="Path 9026" d="M200.891,343.192a1.573,1.573,0,1,0-3-.936,1.789,1.789,0,0,1-3.413,0,1.573,1.573,0,1,0-3,.936,4.934,4.934,0,0,0,9.42,0Z" transform="translate(-191.401 -341.15)" fill="#a3b0b8"/>
    </g>
    <path id="Path_9027" data-name="Path 9027" d="M379.343,173.621c0,.9.515,1.192,1.393,1.192h6.548c.7,0,1.251-.348,1.251-1.016s-.559-1.016-1.251-1.016h-4.709l5.548-6.592a1.345,1.345,0,0,0,.339-.868.989.989,0,0,0-1.119-1.1h-6.358c-.7,0-1.251.348-1.251,1.016s.559,1.016,1.251,1.016h4.208l-5.455,6.446A1.406,1.406,0,0,0,379.343,173.621Z" transform="translate(-180.231 14.755)" fill="#bbc4c9"/>
    <path id="Path_9028" data-name="Path 9028" d="M410.778,65.473H415.9a.786.786,0,1,0,0-1.57H412.6l3.721-4.078a1.056,1.056,0,0,0,.317-.675.79.79,0,0,0-.826-.882h-4.782a.786.786,0,1,0,0,1.571h2.907l-3.789,4.12a1.034,1.034,0,0,0-.262.73.812.812,0,0,0,.895.785Z" transform="translate(-206.302 105.187)" fill="#bbc4c9"/>
    <path id="Path_9029" data-name="Path 9029" d="M357,33.261h3.83a.588.588,0,1,0,0-1.176H358.36l2.785-3.052a.79.79,0,0,0,.232-.5.591.591,0,0,0-.619-.66h-3.578a.588.588,0,1,0,0,1.176h2.176l-2.83,3.084a.774.774,0,0,0-.2.547.6.6,0,0,0,.673.587Z" transform="translate(-160.598 131.13)" fill="#bbc4c9"/>
    <circle id="Ellipse_526" data-name="Ellipse 526" cx="9.529" cy="9.529" r="9.529" transform="translate(202.881 199.518)" fill="#ed1846"/>
    <g id="Group_355" data-name="Group 355" transform="translate(209.614 204.265)">
      <path id="Path_1207" data-name="Path 1207" d="M222.6,343.22a.952.952,0,1,0,.952.952.952.952,0,0,0-.952-.952Z" transform="translate(-220.328 -336.012)" fill="#fff"/>
      <path id="Path_1208" data-name="Path 1208" d="M186.458,140c-1.669,0-2.437.989-2.437,1.657a.709.709,0,0,0,.742.706c.667,0,.4-.952,1.657-.952.617,0,1.113.273,1.113.84,0,.667-.7,1.05-1.1,1.393a2.263,2.263,0,0,0-.829,1.88c0,.643.173.829.68.829.606,0,.732-.273.732-.507a1.553,1.553,0,0,1,.7-1.546,3.166,3.166,0,0,0,1.385-2.263C189.093,140.879,188.041,140,186.458,140Z" transform="translate(-184.021 -140)" fill="#fff"/>
    </g>
  </g>
</svg>
