<svg xmlns="http://www.w3.org/2000/svg" width="106.098" height="96.184" viewBox="0 0 106.098 96.184">
  <g id="Restore_Icon" transform="translate(-0.041 1.45)">
    <path id="Path_50245" data-name="Path 50245" d="M39.668,48.73a64.283,64.283,0,0,0-22.884,0c-4.44.685-9.563,2.053-12.979-.684C.049,44.966.732,39.834,1.756,35.386c2.391-7.527,3.757-13,3.416-25.319" transform="translate(0 27.435)" fill="none" stroke="#a0b0b9" stroke-linecap="round" stroke-linejoin="round" stroke-miterlimit="10" stroke-width="2"/>
    <path id="Path_50246" data-name="Path 50246" d="M68.21,16.133a38.9,38.9,0,0,0-10.246-9.58,36.169,36.169,0,0,0-40.3,1.369,40.495,40.495,0,0,0-9.9,10.265C4.34,24,1.949,30.5,1.949,37.689a38.058,38.058,0,0,0,5.465,19.5,36.373,36.373,0,0,0,9.9,10.607A35.589,35.589,0,0,0,38.5,74.641,36.3,36.3,0,0,0,58.3,68.824,40.484,40.484,0,0,0,68.551,58.9a36.032,36.032,0,0,0,6.489-20.871A34.844,34.844,0,0,0,68.21,16.133ZM44.3,52.059a14.14,14.14,0,0,1-5.465,1.026,14.606,14.606,0,0,1-7.514-2.053,15.463,15.463,0,0,1-6.831-7.869,15.137,15.137,0,0,1,0-10.949,16.175,16.175,0,0,1,6.831-7.527,13.752,13.752,0,0,1,7.514-2.053A14.137,14.137,0,0,1,44.3,23.66a17.422,17.422,0,0,1,7.514,6.5,14.67,14.67,0,0,1,2.049,7.527,13.811,13.811,0,0,1-2.049,7.527A16.169,16.169,0,0,1,44.3,52.059Z" transform="translate(2.881 1.524)" fill="#fff" stroke="#a0b0b9" stroke-linecap="round" stroke-linejoin="round" stroke-miterlimit="10" stroke-width="2"/>
    <path id="Path_50247" data-name="Path 50247" d="M27.012,19.606,13.35,2.841m6.831,24.293L3.445,13.105" transform="translate(7.192 6.605)" fill="none" stroke="#a0b0b9" stroke-linejoin="round" stroke-miterlimit="10" stroke-width="2"/>
    <path id="Path_50248" data-name="Path 50248" d="M37.449,25.878,20.371,12.534M27.2,35.8,12.857,19.035" transform="translate(34.325 34.548)" fill="none" stroke="#a0b0b9" stroke-linejoin="round" stroke-miterlimit="10" stroke-width="2"/>
    <path id="Path_50249" data-name="Path 50249" d="M27.012,18.108,13.35,34.873m-9.9-10.607L21.132,12.5" transform="translate(7.192 34.448)" fill="none" stroke="#a0b0b9" stroke-linecap="round" stroke-linejoin="round" stroke-miterlimit="10" stroke-width="2"/>
    <path id="Path_50250" data-name="Path 50250" d="M11.977,48.73a64.282,64.282,0,0,1,22.884,0c4.44.685,9.563,2.053,12.979-.684,3.757-3.079,3.074-8.211,2.049-12.659-2.391-7.527-3.757-13-3.416-25.319" transform="translate(31.789 27.435)" fill="none" stroke="#a0b0b9" stroke-linecap="round" stroke-linejoin="round" stroke-miterlimit="10" stroke-width="2"/>
    <path id="Path_50251" data-name="Path 50251" d="M11.889,2.128a64.307,64.307,0,0,0,22.884-.342C39.214.76,44.337-.267,47.752,2.47c3.757,2.737,3.416,7.87,2.05,12.317-2.049,7.527-3.416,13-2.733,25.319" transform="translate(31.536 0.474)" fill="none" stroke="#a0b0b9" stroke-linecap="round" stroke-linejoin="round" stroke-miterlimit="10" stroke-width="2"/>
    <path id="Path_50252" data-name="Path 50252" d="M39.864,2.128A64.306,64.306,0,0,1,16.98,1.786C12.54.76,7.417-.267,4,2.47.244,5.208.586,10.34,1.952,14.788,4,22.315,5.368,27.79,4.685,40.107" transform="translate(0.146 0.474)" fill="none" stroke="#a0b0b9" stroke-linecap="round" stroke-linejoin="round" stroke-miterlimit="10" stroke-width="2"/>
    <path id="Path_50253" data-name="Path 50253" d="M36.258,12.069,19.864,26.1m-6.831-7.185L26.012,2.488" transform="translate(34.832 5.589)" fill="none" stroke="#a0b0b9" stroke-linecap="round" stroke-linejoin="round" stroke-miterlimit="10" stroke-width="2"/>
    <path id="Path_50254" data-name="Path 50254" d="M68.21,16.045a38.9,38.9,0,0,0-10.246-9.58,36.169,36.169,0,0,0-40.3,1.369A40.495,40.495,0,0,0,7.756,18.1C4.34,23.914,1.949,30.415,1.949,37.6A38.058,38.058,0,0,0,7.414,57.1a36.373,36.373,0,0,0,9.9,10.607A35.589,35.589,0,0,0,38.5,74.553,36.3,36.3,0,0,0,58.3,68.736a40.483,40.483,0,0,0,10.246-9.922,36.032,36.032,0,0,0,6.489-20.871A34.844,34.844,0,0,0,68.21,16.045ZM44.3,51.971A14.133,14.133,0,0,1,38.836,53a14.606,14.606,0,0,1-7.514-2.053,15.464,15.464,0,0,1-6.831-7.869,15.137,15.137,0,0,1,0-10.949A16.175,16.175,0,0,1,31.322,24.6a13.752,13.752,0,0,1,7.514-2.053A14.137,14.137,0,0,1,44.3,23.572a17.422,17.422,0,0,1,7.514,6.5A14.67,14.67,0,0,1,53.865,37.6a13.811,13.811,0,0,1-2.049,7.527A16.166,16.166,0,0,1,44.3,51.971Z" transform="translate(2.881 1.27)" fill="none" stroke="#a0b0b9" stroke-linecap="round" stroke-linejoin="round" stroke-miterlimit="10" stroke-width="2"/>
    <path id="Path_50255" data-name="Path 50255" d="M1.6,10.5H6.379" transform="translate(0.867 28.683)" fill="none" stroke="#a0b0b9" stroke-linecap="round" stroke-linejoin="round" stroke-miterlimit="10" stroke-width="2"/>
    <path id="Path_50256" data-name="Path 50256" d="M20.246,10.5H25.37" transform="translate(55.626 28.683)" fill="none" stroke="#a0b0b9" stroke-linecap="round" stroke-linejoin="round" stroke-miterlimit="10" stroke-width="2"/>
    <path id="Path_50257" data-name="Path 50257" d="M11.538.55V5.682" transform="translate(30.522 -1)" fill="none" stroke="#a0b0b9" stroke-linecap="round" stroke-linejoin="round" stroke-miterlimit="10" stroke-width="2"/>
    <path id="Path_50258" data-name="Path 50258" d="M11.538,19.32v4.79" transform="translate(30.522 54.108)" fill="none" stroke="#2a3693" stroke-linecap="round" stroke-linejoin="round" stroke-miterlimit="10" stroke-width="1"/>
    <path id="Path_50259" data-name="Path 50259" d="M17.5,18V31.336" transform="translate(47.709 50.303)" fill="none" stroke="#8897b1" stroke-linecap="round" stroke-linejoin="round" stroke-miterlimit="10" stroke-width="2"/>
    <path id="Path_50260" data-name="Path 50260" d="M15.5,24.021v2.053" transform="translate(41.944 67.66)" fill="none" stroke="#8897b1" stroke-linecap="round" stroke-linejoin="round" stroke-miterlimit="10" stroke-width="2"/>
    <path id="Path_50261" data-name="Path 50261" d="M15.5,19.025V32.517" transform="translate(41.944 53.258)" fill="none" stroke="#8897b1" stroke-linecap="round" stroke-linejoin="round" stroke-miterlimit="10" stroke-width="2"/>
    <path id="Path_50262" data-name="Path 50262" d="M13.5,20.025v3.421" transform="translate(36.178 56.14)" fill="none" stroke="#8897b1" stroke-linecap="round" stroke-linejoin="round" stroke-miterlimit="10" stroke-width="2"/>
    <path id="Path_50263" data-name="Path 50263" d="M34.226,17.065a9.716,9.716,0,0,0-1.8-5.878,12.505,12.505,0,0,0-6.607-5.259A12.13,12.13,0,0,0,21.013,5a15.967,15.967,0,0,0-6.606,1.547A11.906,11.906,0,0,0,8.4,12.734a10.133,10.133,0,0,0-.9,4.331,10.828,10.828,0,0,0,.3,3.094,2.373,2.373,0,0,1,.6-1.237,11.906,11.906,0,0,1,6.006-6.187,14.918,14.918,0,0,1,6.606-1.547,12.13,12.13,0,0,1,4.8.928c2.7.928,5.405,2.784,6.607,5.259a11.168,11.168,0,0,1,1.2,2.784A9.391,9.391,0,0,0,34.226,17.065Z" transform="translate(20.882 20.829)" fill="#eaeef0"/>
    <path id="Path_50264" data-name="Path 50264" d="M75.771,13.114a38.135,38.135,0,0,1-6.55,21.662,32.235,32.235,0,0,1-10.342,10.3,35.91,35.91,0,0,1-19.994,6.037,34.528,34.528,0,0,1-21.373-7.1A43.148,43.148,0,0,1,7.516,33,39.039,39.039,0,0,1,2,13.114a13.7,13.7,0,0,1,.345-3.906,41.378,41.378,0,0,0,5.171,15.98,42.759,42.759,0,0,0,10,11.009,35.257,35.257,0,0,0,21.373,7.1,35.91,35.91,0,0,0,19.994-6.037,41.407,41.407,0,0,0,10.342-10.3,34.194,34.194,0,0,0,6.2-17.756A13.7,13.7,0,0,1,75.771,13.114Z" transform="translate(3.028 24.957)" fill="#eaeef0"/>
    <path id="Path_9027" data-name="Path 9027" d="M379.343,172.318c0,.774.444,1.027,1.2,1.027h5.642c.6,0,1.078-.3,1.078-.875s-.482-.875-1.078-.875h-4.057l4.78-5.68a1.159,1.159,0,0,0,.292-.748.852.852,0,0,0-.964-.951h-5.478c-.6,0-1.078.3-1.078.875s.482.875,1.078.875h3.626l-4.7,5.554A1.212,1.212,0,0,0,379.343,172.318Z" transform="translate(-282.945 -138.27)" fill="#bbc4c9"/>
    <path id="Path_9028" data-name="Path 9028" d="M410.654,64.476h4.417a.677.677,0,1,0,0-1.353h-2.849l3.206-3.514a.91.91,0,0,0,.273-.582.681.681,0,0,0-.712-.76h-4.12a.677.677,0,1,0,0,1.354h2.505l-3.265,3.55a.891.891,0,0,0-.226.629.7.7,0,0,0,.771.676Z" transform="translate(-309.635 -45.692)" fill="#bbc4c9"/>
    <path id="Path_9029" data-name="Path 9029" d="M356.911,32.514h3.3a.507.507,0,1,0,0-1.013h-2.132l2.4-2.63a.681.681,0,0,0,.2-.435.509.509,0,0,0-.533-.569h-3.083a.507.507,0,1,0,0,1.013h1.875L356.5,31.537a.667.667,0,0,0-.169.471.521.521,0,0,0,.58.506Z" transform="translate(-262.845 -19.132)" fill="#bbc4c9"/>
  </g>
</svg>
