<svg xmlns="http://www.w3.org/2000/svg" width="98.674" height="78.109" viewBox="0 0 98.674 78.109">
  <g id="Send_Icon" transform="translate(0 23.5)">
    <path id="Path_50216" data-name="Path 50216" d="M18.92,3H8.4L29.441,28.022l3.412-4.549" transform="translate(13.641 4.608)" fill="#fff"/>
    <path id="Path_50217" data-name="Path 50217" d="M18.92,3H8.4L29.441,28.022l3.412-4.549" transform="translate(13.641 4.608)" fill="none" stroke="#2a3693" stroke-linecap="round" stroke-linejoin="round" stroke-miterlimit="10" stroke-width="1"/>
    <path id="Path_50218" data-name="Path 50218" d="M26.825,8.5H5.5" transform="translate(8.295 14.747)" fill="none" stroke="#a3b0b8" stroke-linecap="round" stroke-linejoin="round" stroke-miterlimit="10" stroke-width="2"/>
    <path id="Path_50219" data-name="Path 50219" d="M2.706,5.5H1" transform="translate(0 9.217)" fill="none" stroke="#a3b0b8" stroke-linecap="round" stroke-linejoin="round" stroke-miterlimit="10" stroke-width="2"/>
    <path id="Path_50220" data-name="Path 50220" d="M23.219,5.5H3.6" transform="translate(4.793 9.217)" fill="none" stroke="#a3b0b8" stroke-linecap="round" stroke-linejoin="round" stroke-miterlimit="10" stroke-width="2"/>
    <path id="Path_50221" data-name="Path 50221" d="M15.52,3H5" transform="translate(7.373 4.608)" fill="none" stroke="#a3b0b8" stroke-linecap="round" stroke-linejoin="round" stroke-miterlimit="10" stroke-width="2"/>
    <path id="Path_50223" data-name="Path 50223" d="M25,17.007,36.373,31.224,43.766.8Z" transform="translate(44.241 0.553)" fill="#fff" stroke="#a3b0b8" stroke-linecap="round" stroke-linejoin="round" stroke-miterlimit="10" stroke-width="2"/>
    <path id="Path_50224" data-name="Path 50224" d="M32.706.8,31,11.321H42.373Z" transform="translate(55.301 0.553)" fill="#fff" stroke="#a3b0b8" stroke-linecap="round" stroke-linejoin="round" stroke-miterlimit="10" stroke-width="2"/>
    <path id="Path_50225" data-name="Path 50225" d="M56.651,11.5H26.595L8.956,29.333Z" transform="translate(28.964 24.277)" fill="#fff" stroke="#a3b0b8" stroke-linecap="round" stroke-linejoin="round" stroke-miterlimit="10" stroke-width="2"/>
    <path id="Path_50226" data-name="Path 50226" d="M14.061,35.009l5.057-20.459L22.53,10l2.843,5.687Z" transform="translate(23.964 17.512)" fill="#fff" stroke="#2a3693" stroke-linecap="round" stroke-linejoin="round" stroke-miterlimit="10" stroke-width="1"/>
    <path id="Path_50227" data-name="Path 50227" d="M13.9,35.924,19.018,14.6,22.43,10.05,25.842,14.6Z" transform="translate(23.779 17.604)" fill="#e7ebee" stroke="#a3b0b8" stroke-linecap="round" stroke-linejoin="round" stroke-miterlimit="10" stroke-width="2"/>
    <path id="Path_50228" data-name="Path 50228" d="M25.1,6.987,36.473,22.342l1.137-9.1L28.228,5.85Z" transform="translate(44.425 9.862)" fill="#e7ebee" stroke="#a3b0b8" stroke-linecap="round" stroke-linejoin="round" stroke-miterlimit="10" stroke-width="2"/>
    <path id="Path_50229" data-name="Path 50229" d="M19.759,11.65H51.036L17.2,17.337Z" transform="translate(29.862 20.554)" fill="#e7ebee" stroke="#a3b0b8" stroke-linecap="round" stroke-linejoin="round" stroke-miterlimit="10" stroke-width="2"/>
    <g id="Group_16685" data-name="Group 16685" transform="translate(21.472 7.182)">
      <path id="Path_50230" data-name="Path 50230" d="M19,2.85H8.2L29.525,27.872l3.412-4.549" transform="translate(-8.2 -2.85)" fill="#e7ebee"/>
      <path id="Path_50231" data-name="Path 50231" d="M19,2.85H8.2L29.525,27.872l3.412-4.549" transform="translate(-8.2 -2.85)" fill="none" stroke="#a3b0b8" stroke-linecap="round" stroke-linejoin="round" stroke-miterlimit="10" stroke-width="2"/>
    </g>
    <path id="Path_50222" data-name="Path 50222" d="M10.3.5H38.449L63.293,32.061H32.763Z" transform="translate(17.143 0)" fill="#fff" stroke="#a3b0b8" stroke-linecap="round" stroke-linejoin="round" stroke-miterlimit="10" stroke-width="2"/>
    <path id="Path_9030" data-name="Path 9030" d="M379.343,172.318c0,.774.444,1.027,1.2,1.027h5.642c.6,0,1.078-.3,1.078-.875s-.482-.875-1.078-.875h-4.057l4.78-5.68a1.159,1.159,0,0,0,.292-.748.852.852,0,0,0-.964-.951h-5.478c-.6,0-1.078.3-1.078.875s.482.875,1.078.875h3.626l-4.7,5.554A1.212,1.212,0,0,0,379.343,172.318Z" transform="translate(-312.869 -170.505)" fill="#bbc4c9"/>
    <path id="Path_9031" data-name="Path 9031" d="M410.654,64.476h4.417a.677.677,0,1,0,0-1.353h-2.849l3.206-3.514a.91.91,0,0,0,.273-.582.681.681,0,0,0-.712-.76h-4.12a.677.677,0,1,0,0,1.354h2.505l-3.265,3.55a.891.891,0,0,0-.226.629.7.7,0,0,0,.771.676Z" transform="translate(-339.554 -77.927)" fill="#bbc4c9"/>
    <path id="Path_9032" data-name="Path 9032" d="M356.911,32.514h3.3a.507.507,0,1,0,0-1.013h-2.132l2.4-2.63a.681.681,0,0,0,.2-.435.509.509,0,0,0-.533-.569h-3.083a.507.507,0,1,0,0,1.013h1.875L356.5,31.537a.667.667,0,0,0-.169.471.521.521,0,0,0,.58.506Z" transform="translate(-292.764 -51.366)" fill="#bbc4c9"/>
  </g>
</svg>
