<svg xmlns="http://www.w3.org/2000/svg" width="433.541" height="254.99" viewBox="0 0 433.541 254.99">
  <g id="Group_3175" data-name="Group 3175" transform="translate(0 0)" opacity="0.05">
    <path id="Path_1784" data-name="Path 1784" d="M216.279,354.791a10.115,10.115,0,0,1,0-20.23h3.353a10.709,10.709,0,0,0,1.451-21.321H167.625a10.115,10.115,0,0,1,0-20.23h45.4a10.707,10.707,0,0,0-1.311-18.741h-92.2a10.115,10.115,0,0,1,0-20.229H223.066a10.711,10.711,0,0,0,5.2-20.074H173.089a10.114,10.114,0,0,1,0-20.228H253.7a10.714,10.714,0,0,0,3.658-20.775H216.279a10.114,10.114,0,0,1,0-20.228h27.7a127.5,127.5,0,0,1,177.582,12.572h17.235a10.116,10.116,0,0,1,0,20.231H430.3a10.114,10.114,0,0,0,.014,20.228h15.591c.049.13.094.262.143.39h40.3a10.114,10.114,0,1,1,0,20.228H441.336a10.393,10.393,0,0,0-.437,20.777h91.928a10.115,10.115,0,0,1,0,20.229H430.317a10.113,10.113,0,0,0-3.277,19.68h54.941a10.115,10.115,0,1,1,0,20.229H401.632a10.114,10.114,0,0,0,.014,20.228H427.6c-.04.052-.08.1-.121.155h11.311a10.114,10.114,0,0,1,0,20.228H408.07a127.492,127.492,0,0,1-177.02-13.121Z" transform="translate(-109.4 -142.577)" fill="#43b989"/>
  </g>
</svg>
