<svg xmlns="http://www.w3.org/2000/svg" width="156.432" height="208.096" viewBox="0 0 156.432 208.096">
  <g id="Group_3184" data-name="Group 3184" transform="translate(1.098 1.096)">
    <g id="Group_3176" data-name="Group 3176">
      <path id="Path_1785" data-name="Path 1785" d="M320.9,154.176H231.246L185.659,210.4V341.083a19,19,0,0,0,19,19H320.9a19,19,0,0,0,19-19V173.174a19,19,0,0,0-19-19" transform="translate(-185.659 -154.176)" fill="#ebf5ee"/>
    </g>
    <g id="Group_3177" data-name="Group 3177" transform="translate(0 0.002)" opacity="0.1">
      <path id="Path_1786" data-name="Path 1786" d="M231.246,154.177v37.229A19,19,0,0,1,212.252,210.4H185.659Z" transform="translate(-185.659 -154.177)" fill="#fff"/>
    </g>
    <g id="Group_3178" data-name="Group 3178" transform="translate(0 0.002)">
      <path id="Path_1787" data-name="Path 1787" d="M339.9,173.171V341.084a19,19,0,0,1-19,18.994H204.655a19,19,0,0,1-19-18.994V210.4l45.587-56.223H320.9A19,19,0,0,1,339.9,173.171Z" transform="translate(-185.659 -154.177)" fill="none" stroke="#43b989" stroke-miterlimit="10" stroke-width="2.195"/>
    </g>
    <g id="Group_3179" data-name="Group 3179" transform="translate(0 0.002)">
      <path id="Path_1788" data-name="Path 1788" d="M231.246,154.177v37.229A19,19,0,0,1,212.252,210.4H185.659Z" transform="translate(-185.659 -154.177)" fill="none" stroke="#43b989" stroke-linecap="round" stroke-linejoin="round" stroke-width="2.195"/>
    </g>
    <g id="Group_3181" data-name="Group 3181" transform="translate(12.885 88.929)">
      <g id="Group_3180" data-name="Group 3180">
        <path id="Path_1789" data-name="Path 1789" d="M266.1,203.407a36.268,36.268,0,0,1-50.745,0" transform="translate(-174.596 -203.407)" fill="none" stroke="#43b989" stroke-linecap="round" stroke-linejoin="round" stroke-width="2.195"/>
        <line id="Line_19" data-name="Line 19" x2="69.455" transform="translate(29.38 39.351)" fill="none" stroke="#43b989" stroke-linecap="round" stroke-linejoin="round" stroke-width="2.195"/>
        <line id="Line_20" data-name="Line 20" x2="128.467" transform="translate(0 65.436)" fill="none" stroke="#43b989" stroke-linecap="round" stroke-linejoin="round" stroke-width="2.195"/>
        <line id="Line_21" data-name="Line 21" x2="128.467" transform="translate(0 82.91)" fill="none" stroke="#43b989" stroke-linecap="round" stroke-linejoin="round" stroke-width="2.195"/>
      </g>
    </g>
    <g id="Group_3182" data-name="Group 3182" transform="translate(40.513 65.271)">
      <path id="Path_1790" data-name="Path 1790" d="M216.084,194.794a3.513,3.513,0,1,1-3.515-3.515A3.514,3.514,0,0,1,216.084,194.794Z" transform="translate(-207.305 -189.529)" fill="#43b989"/>
      <path id="Path_1791" data-name="Path 1791" d="M213.351,200.839a5.265,5.265,0,1,1,5.266-5.264A5.27,5.27,0,0,1,213.351,200.839Zm0-7.029a1.763,1.763,0,1,0,1.763,1.765A1.766,1.766,0,0,0,213.351,193.811Z" transform="translate(-208.087 -190.31)" fill="#43b989"/>
    </g>
    <g id="Group_3183" data-name="Group 3183" transform="translate(104.619 65.271)">
      <path id="Path_1792" data-name="Path 1792" d="M251.574,194.794a3.514,3.514,0,1,1-3.513-3.515A3.513,3.513,0,0,1,251.574,194.794Z" transform="translate(-242.795 -189.529)" fill="#43b989"/>
      <path id="Path_1793" data-name="Path 1793" d="M248.842,200.839a5.265,5.265,0,1,1,5.264-5.264A5.272,5.272,0,0,1,248.842,200.839Zm0-7.029a1.763,1.763,0,1,0,1.763,1.765A1.765,1.765,0,0,0,248.842,193.811Z" transform="translate(-243.576 -190.31)" fill="#43b989"/>
    </g>
  </g>
</svg>
