<svg xmlns="http://www.w3.org/2000/svg" width="36" height="36" viewBox="0 0 36 36">
  <g id="surface1" transform="translate(-6 -6)">
    <path id="Path_50843" data-name="Path 50843" d="M42,35.5c0-3.59-8.059-6.5-18-6.5S6,31.91,6,35.5,14.059,42,24,42,42,39.09,42,35.5Z" fill="#edf0f3"/>
    <path id="Path_50844" data-name="Path 50844" d="M24,6A10.928,10.928,0,0,0,13,16.852C13,22.844,24,37,24,37S35,22.844,35,16.852A10.928,10.928,0,0,0,24,6Zm0,16a5,5,0,1,1,5-5A5,5,0,0,1,24,22Z" fill="#0eb582"/>
  </g>
</svg>
