<svg xmlns="http://www.w3.org/2000/svg" width="42" height="36" viewBox="0 0 42 36">
  <g id="surface1" transform="translate(-3 -6)">
    <path id="Path_50876" data-name="Path 50876" d="M41,42H7a4,4,0,0,1-4-4V10A4,4,0,0,1,7,6H41a4,4,0,0,1,4,4V38A4,4,0,0,1,41,42Z" fill="#fec400"/>
    <path id="Path_50877" data-name="Path 50877" d="M7,10H41V38H7Z" fill="#009688"/>
    <path id="Path_50878" data-name="Path 50878" d="M28,36h8v2H28Z" fill="#fff"/>
    <path id="Path_50879" data-name="Path 50879" d="M27,20a3,3,0,1,1-3-3A3,3,0,0,1,27,20Z" fill="#fff"/>
    <path id="Path_50880" data-name="Path 50880" d="M18,23a2,2,0,1,1-2-2A2,2,0,0,1,18,23Z" fill="#a5d6a7"/>
    <path id="Path_50881" data-name="Path 50881" d="M7,10H41v2H7Z" fill="#2e7d32"/>
    <path id="Path_50882" data-name="Path 50882" d="M36,38H28l4,4h8Z" fill="#ffab00"/>
    <path id="Path_50883" data-name="Path 50883" d="M34,23a2,2,0,1,1-2-2A2,2,0,0,1,34,23Z" fill="#a5d6a7"/>
    <path id="Path_50884" data-name="Path 50884" d="M37,28.688a1.747,1.747,0,0,0-.469-1.2A6.167,6.167,0,0,0,32,26a6.167,6.167,0,0,0-4.531,1.488,1.747,1.747,0,0,0-.469,1.2V30H37Z" fill="#a5d6a7"/>
    <path id="Path_50885" data-name="Path 50885" d="M21,28.688a1.747,1.747,0,0,0-.469-1.2A6.167,6.167,0,0,0,16,26a6.167,6.167,0,0,0-4.531,1.488,1.747,1.747,0,0,0-.469,1.2V30H21Z" fill="#a5d6a7"/>
    <path id="Path_50886" data-name="Path 50886" d="M30,27.742a2.087,2.087,0,0,0-.562-1.437,7.567,7.567,0,0,0-10.875,0A2.08,2.08,0,0,0,18,27.742V30H30Z" fill="#fff"/>
  </g>
</svg>
