<svg xmlns="http://www.w3.org/2000/svg" width="77.022" height="103.723" viewBox="0 0 77.022 103.723">
  <g id="Group_418" data-name="Group 418" transform="translate(-141 -252.841)">
    <g id="Group_414" data-name="Group 414" transform="translate(-30 16)">
      <g id="calendar_2_" data-name="calendar (2)" transform="translate(171 285.233)">
        <g id="Group_10" data-name="Group 10">
          <path id="Path_73" data-name="Path 73" d="M49.8,12.389H42.419V10.544a1.845,1.845,0,0,0-3.689,0v1.844H20.287V10.544A1.743,1.743,0,0,0,18.443,8.7c-1.107,0,.156.738.156,1.844v1.844H9.221A9.132,9.132,0,0,0,0,21.61v33.2a9.132,9.132,0,0,0,9.221,9.221H49.8a9.132,9.132,0,0,0,9.221-9.221V21.61A9.132,9.132,0,0,0,49.8,12.389ZM3.689,21.61a5.673,5.673,0,0,1,5.533-5.533H18.6v1.844c0,1.107-1.262,1.844-.156,1.844a1.743,1.743,0,0,0,1.844-1.844V16.077H38.73v1.844a1.844,1.844,0,1,0,3.689,0V16.077H49.8a5.673,5.673,0,0,1,5.533,5.533v5.533H3.689Zm51.64,33.2A5.673,5.673,0,0,1,49.8,60.341H9.221a5.673,5.673,0,0,1-5.533-5.533V30.832h51.64Z" transform="translate(0 -8.7)" fill="#a3b0b8"/>
          <path id="Path_74" data-name="Path 74" d="M47.192,198.791a3.349,3.349,0,0,0,2.582-1.106,3.652,3.652,0,1,0-5.164-5.164A3.348,3.348,0,0,0,43.5,195.1a3.985,3.985,0,0,0,1.106,2.582,3.349,3.349,0,0,0,2.586,1.109Z" transform="translate(-34.282 -152.683)" fill="#a3b0b8"/>
          <path id="Path_75" data-name="Path 75" d="M47.192,146.587a3.349,3.349,0,0,0,2.582-1.107,3.652,3.652,0,1,0-5.164-5.164,3.689,3.689,0,0,0,2.582,6.271Z" transform="translate(-34.282 -111.545)" fill="#a3b0b8"/>
          <path id="Path_76" data-name="Path 76" d="M99.4,198.791a3.349,3.349,0,0,0,2.582-1.106,3.689,3.689,0,1,0-5.164,0,3.349,3.349,0,0,0,2.582,1.106Z" transform="translate(-75.42 -152.683)" fill="#a3b0b8"/>
          <path id="Path_77" data-name="Path 77" d="M99.4,146.587a3.349,3.349,0,0,0,2.582-1.107,3.689,3.689,0,1,0-5.164,0A3.349,3.349,0,0,0,99.4,146.587Z" transform="translate(-75.42 -111.545)" fill="#a3b0b8"/>
          <path id="Path_78" data-name="Path 78" d="M151.6,198.791a3.652,3.652,0,0,0,2.582-6.271,3.652,3.652,0,1,0-5.164,5.164A3.349,3.349,0,0,0,151.6,198.791Z" transform="translate(-116.557 -152.683)" fill="#a3b0b8"/>
          <path id="Path_79" data-name="Path 79" d="M151.6,146.587a3.782,3.782,0,0,0,3.688-3.689,3.984,3.984,0,0,0-1.106-2.582,3.652,3.652,0,1,0-5.164,5.164A3.349,3.349,0,0,0,151.6,146.587Z" transform="translate(-116.557 -111.545)" fill="#a3b0b8"/>
          <path id="Path_80" data-name="Path 80" d="M203.8,198.791a3.349,3.349,0,0,0,2.582-1.106,3.652,3.652,0,1,0-5.164-5.164,3.348,3.348,0,0,0-1.106,2.582,3.985,3.985,0,0,0,1.106,2.582,3.349,3.349,0,0,0,2.582,1.106Z" transform="translate(-157.695 -152.683)" fill="#a3b0b8"/>
          <path id="Path_81" data-name="Path 81" d="M203.8,146.587a3.782,3.782,0,0,0,3.688-3.689,3.984,3.984,0,0,0-1.106-2.582,3.652,3.652,0,1,0-5.164,5.164,3.349,3.349,0,0,0,2.582,1.107Z" transform="translate(-157.695 -111.545)" fill="#a3b0b8"/>
        </g>
      </g>
      <rect id="Rectangle_2531" data-name="Rectangle 2531" width="55" height="14" transform="translate(190 273)" fill="#e7ebee"/>
      <rect id="Rectangle_2532" data-name="Rectangle 2532" width="55" height="33" transform="translate(190 287)" fill="#fff"/>
      <g id="calendar_2_2" data-name="calendar (2)" transform="translate(189 266.233)">
        <g id="Group_10-2" data-name="Group 10">
          <path id="Path_73-2" data-name="Path 73" d="M49.8,12.389H42.419V10.544a1.845,1.845,0,0,0-3.689,0v1.844H20.287V10.544A1.743,1.743,0,0,0,18.443,8.7,1.743,1.743,0,0,0,16.6,10.544v1.844H9.221A9.132,9.132,0,0,0,0,21.61v33.2a9.132,9.132,0,0,0,9.221,9.221H49.8a9.132,9.132,0,0,0,9.221-9.221V21.61A9.132,9.132,0,0,0,49.8,12.389ZM3.689,21.61a5.673,5.673,0,0,1,5.533-5.533H16.6v1.844a1.743,1.743,0,0,0,1.844,1.844,1.743,1.743,0,0,0,1.844-1.844V16.077H38.73v1.844a1.844,1.844,0,1,0,3.689,0V16.077H49.8a5.673,5.673,0,0,1,5.533,5.533v5.533H3.689Zm51.64,33.2A5.673,5.673,0,0,1,49.8,60.341H9.221a5.673,5.673,0,0,1-5.533-5.533V30.832h51.64Z" transform="translate(0 -8.7)" fill="#a3b0b8"/>
          <g id="Group_413" data-name="Group 413" transform="translate(17.669 29.562)">
            <path id="Path_9024" data-name="Path 9024" d="M234.831,393.859a5.01,5.01,0,0,1-6.3,0,1.355,1.355,0,1,0-1.774,2.048,7.715,7.715,0,0,0,9.849,0,1.355,1.355,0,1,0-1.774-2.048Z" transform="translate(-219.957 -384.022)" fill="#a3b0b8"/>
            <path id="Path_9025" data-name="Path 9025" d="M283.8,341.213a1.355,1.355,0,0,0-1.7.89,1.541,1.541,0,0,1-2.942,0,1.355,1.355,0,1,0-2.587.806,4.251,4.251,0,0,0,8.116,0,1.354,1.354,0,0,0-.887-1.7Z" transform="translate(-261.064 -341.151)" fill="#a3b0b8"/>
            <path id="Path_9026" data-name="Path 9026" d="M199.578,342.91a1.355,1.355,0,1,0-2.587-.806,1.541,1.541,0,0,1-2.941,0,1.355,1.355,0,1,0-2.587.806,4.251,4.251,0,0,0,8.116,0Z" transform="translate(-191.401 -341.151)" fill="#a3b0b8"/>
          </g>
        </g>
        <path id="Path_9030" data-name="Path 9030" d="M379.343,172.318c0,.774.444,1.027,1.2,1.027h5.642c.6,0,1.078-.3,1.078-.875s-.482-.875-1.078-.875h-4.057l4.78-5.68a1.159,1.159,0,0,0,.292-.748.852.852,0,0,0-.964-.951h-5.478c-.6,0-1.078.3-1.078.875s.482.875,1.078.875h3.626l-4.7,5.554A1.212,1.212,0,0,0,379.343,172.318Z" transform="translate(-334.709 -176.397)" fill="#bbc4c9"/>
        <path id="Path_9031" data-name="Path 9031" d="M410.654,64.476h4.417a.677.677,0,1,0,0-1.353h-2.849l3.206-3.514a.91.91,0,0,0,.273-.582.681.681,0,0,0-.712-.76h-4.12a.677.677,0,1,0,0,1.354h2.505l-3.265,3.55a.891.891,0,0,0-.226.629.7.7,0,0,0,.771.676Z" transform="translate(-361.394 -83.819)" fill="#bbc4c9"/>
        <path id="Path_9032" data-name="Path 9032" d="M356.911,32.514h3.3a.507.507,0,1,0,0-1.013h-2.132l2.4-2.63a.681.681,0,0,0,.2-.435.509.509,0,0,0-.533-.569h-3.083a.507.507,0,1,0,0,1.013h1.875L356.5,31.537a.667.667,0,0,0-.169.471.521.521,0,0,0,.58.506Z" transform="translate(-314.604 -57.258)" fill="#bbc4c9"/>
      </g>
    </g>
  </g>
</svg>
